# xmcd
#
# Track frame offsets:
#	150
#	18907
#	37206
#	54145
#	76106
#	104346
#	127708
#	146401
#	168836
#	188141
#	208828
#	234849
#	250239
#	266881
#
# Disc length: 3869 seconds
#
# Revision: 0
# Processed by: cddbd v1.5.2PL0 Copyright (c) Steve Scherf et al.
# Submitted via: dBpowerAMP V4.0
#
DISCID=b10f1b0e
DTITLE=Paul Miles - Blue Collar Man
DYEAR=1900
DGENRE=Blues
TTITLE0=Blues Collar Man
TTITLE1=Overtime
TTITLE2=I See the Light
TTITLE3=Gonna Make It
TTITLE4=Out Of Luck
TTITLE5=Does Anybody
TTITLE6=Hi Ho Silver
TTITLE7=Way Down Moses
TTITLE8=Rock Me Out
TTITLE9=Bring Me Some Gumbo
TTITLE10=Back To The City
TTITLE11=Way Back
TTITLE12=Big"D"
TTITLE13=Sweet Dreams-Good Night
EXTD=
EXTT0=
EXTT1=
EXTT2=
EXTT3=
EXTT4=
EXTT5=
EXTT6=
EXTT7=
EXTT8=
EXTT9=
EXTT10=
EXTT11=
EXTT12=
EXTT13=
PLAYORDER=
